P1
# Simple 8x8 black and white
8 8
0 0 0 0 0 0 0 0
0 1 1 1 1 1 1 0
0 1 0 0 0 0 1 0
0 1 0 0 0 0 1 0
0 1 0 0 0 0 1 0
0 1 0 0 0 0 1 0
0 1 1 1 1 1 1 0
0 0 0 0 0 0 0 0
