P2
# Simple 4x4 grayscale
4 4
255
0 100 200 255
100 0 100 200
200 100 0 100
255 200 100 0
